<svg width="79" height="16" viewBox="0 0 79 16" fill="none" xmlns="http://www.w3.org/2000/svg">
<rect x="38.6757" y="14.0179" width="18.0594" height="1.968" fill="#FF5619"/>
<path d="M2.24518 11.8972V2.42517H6.03397C6.70929 2.42517 7.25525 2.56111 7.67184 2.83299C8.08843 3.10049 8.3932 3.43815 8.58615 3.84597C8.7791 4.25379 8.87557 4.666 8.87557 5.08259C8.87557 5.6132 8.75498 6.05391 8.5138 6.40473C8.277 6.75554 7.9503 6.99015 7.53371 7.10855V6.77966C8.12571 6.90244 8.56861 7.17652 8.86242 7.60188C9.16061 8.02724 9.30971 8.50304 9.30971 9.02926C9.30971 9.59495 9.20446 10.0927 8.99397 10.5224C8.78787 10.9522 8.47214 11.2898 8.04677 11.5354C7.62141 11.7766 7.08642 11.8972 6.4418 11.8972H2.24518ZM4.06064 10.2133H6.25762C6.4988 10.2133 6.71368 10.1628 6.90224 10.062C7.0908 9.95672 7.23771 9.81201 7.34295 9.62784C7.45258 9.43927 7.5074 9.21782 7.5074 8.96348C7.5074 8.73984 7.46135 8.54031 7.36926 8.3649C7.27717 8.1895 7.13685 8.05136 6.94829 7.9505C6.76411 7.84526 6.53389 7.79264 6.25762 7.79264H4.06064V10.2133ZM4.06064 6.12188H6.00766C6.20938 6.12188 6.38917 6.0868 6.54704 6.01664C6.70491 5.94647 6.82989 5.83904 6.92197 5.69433C7.01406 5.54523 7.06011 5.35447 7.06011 5.12206C7.06011 4.83264 6.97021 4.58926 6.79042 4.39193C6.61063 4.19459 6.34971 4.09593 6.00766 4.09593H4.06064V6.12188ZM11.2793 11.8972V2.42517H17.4624V4.09593H13.0685V6.12188H16.6731V7.79264H13.0685V10.2264H17.4624V11.8972H11.2793ZM19.6968 11.8972V2.42517H23.6961C23.7882 2.42517 23.911 2.42956 24.0645 2.43833C24.2223 2.44271 24.3627 2.45587 24.4855 2.47779C25.0511 2.5655 25.5138 2.75187 25.8734 3.0369C26.2373 3.32194 26.5048 3.68153 26.6759 4.11566C26.8469 4.54541 26.9324 5.02559 26.9324 5.55619C26.9324 6.0868 26.8447 6.56917 26.6693 7.0033C26.4983 7.43305 26.2308 7.79044 25.8668 8.07548C25.5072 8.36052 25.0468 8.54689 24.4855 8.63459C24.3627 8.65213 24.2223 8.66529 24.0645 8.67406C23.9066 8.68283 23.7838 8.68721 23.6961 8.68721H21.486V11.8972H19.6968ZM21.486 7.01646H23.6172C23.7093 7.01646 23.8101 7.01207 23.9198 7.0033C24.0294 6.99453 24.1303 6.97699 24.2223 6.95068C24.4635 6.8849 24.6499 6.77527 24.7815 6.62179C24.913 6.46393 25.0029 6.29071 25.0511 6.10215C25.1038 5.9092 25.1301 5.72721 25.1301 5.55619C25.1301 5.38517 25.1038 5.20538 25.0511 5.01682C25.0029 4.82387 24.913 4.65065 24.7815 4.49717C24.6499 4.3393 24.4635 4.22748 24.2223 4.1617C24.1303 4.13539 24.0294 4.11785 23.9198 4.10908C23.8101 4.10031 23.7093 4.09593 23.6172 4.09593H21.486V7.01646ZM27.601 13.4758V10.2264C27.886 10.2264 28.1272 10.1563 28.3245 10.0159C28.5262 9.87121 28.6907 9.66949 28.8178 9.41077C28.945 9.14766 29.0459 8.8407 29.1204 8.48988C29.195 8.13907 29.2498 7.75755 29.2849 7.34535C29.3287 6.81913 29.3682 6.30167 29.4033 5.79299C29.4383 5.27993 29.4734 4.74932 29.5085 4.20117C29.5436 3.64864 29.5831 3.05225 29.6269 2.41202L35.9153 2.42517V10.2264H36.6388V13.4758H34.8497V11.8972H29.3901V13.4758H27.601ZM30.2715 10.2264H34.1261V4.09593L31.2582 4.08277C31.2275 4.5169 31.2012 4.91596 31.1793 5.27993C31.1617 5.6439 31.1398 6.01225 31.1135 6.38499C31.0872 6.75773 31.0521 7.17433 31.0082 7.63477C30.9644 8.09521 30.9205 8.47453 30.8767 8.77272C30.8328 9.06653 30.7649 9.32307 30.6728 9.54232C30.5851 9.76158 30.4513 9.98961 30.2715 10.2264ZM46.4902 11.8972H44.6747V5.5825L40.557 11.8972H38.7415V2.42517H40.557V8.73984L44.6747 2.42517H46.4902V11.8972ZM56.732 11.8972H54.9165V5.5825L50.7988 11.8972H48.9834V2.42517H50.7988V8.73984L54.9165 2.42517H56.732V11.8972ZM59.2252 11.8972V2.42517H61.0143V6.79281L64.6189 2.42517H66.8027L62.8429 7.09539L67.0527 11.8972H64.79L61.0143 7.58215V11.8972H59.2252ZM70.8289 11.8972V4.09593H67.8426V2.42517H75.6043V4.09593H72.618V11.8972H70.8289Z" fill="#FF5619"/>
</svg>
