<svg width="753" height="268" viewBox="0 0 753 268" fill="none" xmlns="http://www.w3.org/2000/svg">
<path d="M21.9833 116.291V24.3539H58.7581C65.3129 24.3539 70.612 25.6733 74.6556 28.3123C78.6991 30.9086 81.6573 34.186 83.5301 38.1444C85.4029 42.1028 86.3393 46.1038 86.3393 50.1473C86.3393 55.2975 85.1688 59.5752 82.8278 62.9802C80.5293 66.3853 77.3584 68.6625 73.3148 69.8117V66.6194C79.0609 67.8112 83.3598 70.4714 86.2116 74.6001C89.1059 78.7287 90.553 83.3469 90.553 88.4545C90.553 93.9452 89.5315 98.7761 87.4885 102.947C85.488 107.119 82.4234 110.396 78.2948 112.78C74.1661 115.121 68.9734 116.291 62.7165 116.291H21.9833ZM39.6045 99.9466H60.9289C63.2698 99.9466 65.3555 99.4572 67.1857 98.4782C69.0159 97.4567 70.4418 96.0521 71.4633 94.2644C72.5274 92.4342 73.0594 90.2847 73.0594 87.816C73.0594 85.6453 72.6125 83.7087 71.7187 82.0061C70.8249 80.3036 69.4628 78.9628 67.6326 77.9839C65.8449 76.9623 63.6104 76.4516 60.9289 76.4516H39.6045V99.9466ZM39.6045 60.2349H58.5027C60.4607 60.2349 62.2058 59.8944 63.738 59.2134C65.2703 58.5324 66.4834 57.4896 67.3772 56.085C68.2711 54.6378 68.718 52.7863 68.718 50.5304C68.718 47.7212 67.8454 45.359 66.1003 43.4436C64.3552 41.5282 61.8227 40.5706 58.5027 40.5706H39.6045V60.2349ZM109.671 116.291V24.3539H169.685V40.5706H127.037V60.2349H162.024V76.4516H127.037V100.074H169.685V116.291H109.671ZM191.373 116.291V24.3539H230.191C231.084 24.3539 232.276 24.3964 233.766 24.4816C235.298 24.5241 236.66 24.6518 237.852 24.8646C243.343 25.7159 247.833 27.5248 251.323 30.2915C254.856 33.0581 257.452 36.5483 259.112 40.7621C260.772 44.9333 261.602 49.594 261.602 54.7442C261.602 59.8944 260.751 64.5764 259.049 68.7902C257.389 72.9614 254.792 76.4303 251.259 79.1969C247.769 81.9636 243.3 83.7725 237.852 84.6238C236.66 84.794 235.298 84.9217 233.766 85.0068C232.234 85.092 231.042 85.1345 230.191 85.1345H208.739V116.291H191.373ZM208.739 68.9178H229.424C230.318 68.9178 231.297 68.8753 232.361 68.7902C233.425 68.705 234.404 68.5348 235.298 68.2794C237.639 67.6409 239.448 66.5769 240.725 65.0871C242.002 63.5548 242.874 61.8736 243.343 60.0434C243.853 58.1706 244.109 56.4042 244.109 54.7442C244.109 53.0842 243.853 51.3391 243.343 49.5089C242.874 47.6361 242.002 45.9548 240.725 44.4651C239.448 42.9328 237.639 41.8475 235.298 41.209C234.404 40.9536 233.425 40.7834 232.361 40.6983C231.297 40.6131 230.318 40.5706 229.424 40.5706H208.739V68.9178ZM268.092 131.614V100.074C270.858 100.074 273.199 99.3933 275.115 98.0313C277.073 96.6267 278.669 94.6688 279.903 92.1575C281.137 89.6037 282.116 86.6243 282.84 83.2192C283.564 79.8141 284.096 76.1111 284.436 72.1101C284.862 67.0025 285.245 61.98 285.585 57.0426C285.926 52.0627 286.266 46.9125 286.607 41.5921C286.947 36.2291 287.33 30.4405 287.756 24.2262L348.792 24.3539V100.074H355.815V131.614H338.449V116.291H285.458V131.614H268.092ZM294.013 100.074H331.426V40.5706L303.59 40.4429C303.292 44.6567 303.036 48.5299 302.823 52.0627C302.653 55.5955 302.44 59.1708 302.185 62.7887C301.93 66.4066 301.589 70.4501 301.164 74.9193C300.738 79.3885 300.312 83.0702 299.887 85.9645C299.461 88.8163 298.801 91.3062 297.907 93.4344C297.056 95.5626 295.758 97.7759 294.013 100.074ZM451.434 116.291H433.813V54.9996L393.846 116.291H376.225V24.3539H393.846V85.6453L433.813 24.3539H451.434V116.291ZM550.843 116.291H533.222V54.9996L493.255 116.291H475.634V24.3539H493.255V85.6453L533.222 24.3539H550.843V116.291ZM575.043 116.291V24.3539H592.409V66.7471L627.396 24.3539H648.592L610.158 69.684L651.018 116.291H629.056L592.409 74.4085V116.291H575.043ZM687.671 116.291V40.5706H658.685V24.3539H734.022V40.5706H705.037V116.291H687.671Z" fill="white"/>
<g clip-path="url(#clip0_5_2)">
<path fill-rule="evenodd" clip-rule="evenodd" d="M736 142H13.0449V245H736V142ZM62.1625 171.942V209.382H68.4285V193.574H86.1605V209.382H92.4005V171.942H86.1605V187.698H68.4285V171.942H62.1625ZM106.008 208.316C108.157 209.547 110.653 210.162 113.496 210.162C116.2 210.162 118.67 209.46 120.906 208.056C123.159 206.652 124.823 204.685 125.898 202.154L119.71 200.282C119.103 201.582 118.236 202.579 117.11 203.272C116 203.948 114.674 204.286 113.132 204.286C110.74 204.286 108.92 203.506 107.672 201.946C106.692 200.721 106.096 199.1 105.886 197.084H119.996H123.142H126.21C126.452 193.721 126.08 190.801 125.092 188.322C124.104 185.843 122.587 183.928 120.542 182.576C118.514 181.207 116.044 180.522 113.132 180.522C110.376 180.522 107.949 181.146 105.852 182.394C103.754 183.642 102.116 185.401 100.938 187.672C99.7591 189.925 99.1698 192.586 99.1698 195.654C99.1698 198.497 99.7678 201.01 100.964 203.194C102.177 205.378 103.858 207.085 106.008 208.316ZM119.85 192.352C119.624 190.524 119.135 189.111 118.384 188.114C117.326 186.71 115.662 186.008 113.392 186.008C110.826 186.008 108.92 186.805 107.672 188.4C106.87 189.413 106.326 190.73 106.039 192.352H119.85ZM142.073 177.064C143.269 177.775 144.586 178.13 146.025 178.13C147.464 178.13 148.781 177.775 149.977 177.064C151.173 176.353 152.126 175.409 152.837 174.23C153.548 173.034 153.903 171.708 153.903 170.252H149.015C149.015 171.084 148.72 171.795 148.131 172.384C147.559 172.956 146.857 173.242 146.025 173.242C145.193 173.242 144.482 172.956 143.893 172.384C143.321 171.795 143.035 171.084 143.035 170.252H138.147C138.147 171.708 138.502 173.034 139.213 174.23C139.924 175.409 140.877 176.353 142.073 177.064ZM151.381 209.382H157.387V181.302H152.421L139.005 199.164V181.302H132.999V209.382H138.017L151.381 191.052V209.382ZM172.332 208.212C174.186 209.512 176.483 210.162 179.222 210.162C181.804 210.162 184.058 209.512 185.982 208.212C187.906 206.912 189.396 205.144 190.454 202.908C191.511 200.672 192.04 198.15 192.04 195.342C192.04 192.499 191.502 189.969 190.428 187.75C189.353 185.514 187.836 183.755 185.878 182.472C183.936 181.172 181.64 180.522 178.988 180.522C176.318 180.522 174.074 181.172 172.254 182.472C171.889 182.731 171.543 183.01 171.214 183.308V181.302H165.676V221.862H171.994V207.966C172.105 208.05 172.217 208.132 172.332 208.212ZM171.214 195.342C171.214 193.505 171.448 191.901 171.916 190.532C172.401 189.145 173.146 188.07 174.152 187.308C175.157 186.528 176.457 186.138 178.052 186.138C179.733 186.138 181.12 186.554 182.212 187.386C183.304 188.201 184.11 189.31 184.63 190.714C185.15 192.101 185.41 193.643 185.41 195.342C185.41 197.058 185.15 198.618 184.63 200.022C184.127 201.409 183.347 202.509 182.29 203.324C181.232 204.139 179.889 204.546 178.26 204.546C176.578 204.546 175.218 204.165 174.178 203.402C173.155 202.622 172.401 201.539 171.916 200.152C171.448 198.765 171.214 197.162 171.214 195.342ZM203.855 208.264C205.952 209.529 208.405 210.162 211.213 210.162C214.021 210.162 216.473 209.538 218.571 208.29C220.668 207.025 222.297 205.283 223.459 203.064C224.637 200.828 225.227 198.254 225.227 195.342C225.227 192.447 224.646 189.891 223.485 187.672C222.323 185.436 220.694 183.685 218.597 182.42C216.499 181.155 214.038 180.522 211.213 180.522C208.457 180.522 206.03 181.146 203.933 182.394C201.835 183.642 200.197 185.375 199.019 187.594C197.84 189.812 197.251 192.395 197.251 195.342C197.251 198.237 197.823 200.802 198.967 203.038C200.128 205.257 201.757 206.999 203.855 208.264ZM216.777 201.79C215.563 203.454 213.709 204.286 211.213 204.286C208.803 204.286 206.975 203.48 205.727 201.868C204.496 200.239 203.881 198.063 203.881 195.342C203.881 193.574 204.141 192.023 204.661 190.688C205.181 189.336 205.978 188.287 207.053 187.542C208.145 186.779 209.531 186.398 211.213 186.398C213.674 186.398 215.52 187.213 216.751 188.842C217.981 190.454 218.597 192.621 218.597 195.342C218.597 197.977 217.99 200.126 216.777 201.79ZM236.779 208.238C238.825 209.521 241.295 210.162 244.189 210.162C247.327 210.162 249.979 209.399 252.145 207.874C254.312 206.331 255.829 204.13 256.695 201.27L250.299 199.84C249.814 201.279 249.086 202.379 248.115 203.142C247.162 203.905 245.853 204.286 244.189 204.286C241.832 204.286 240.055 203.463 238.859 201.816C237.663 200.169 237.065 198.011 237.065 195.342C237.065 193.626 237.317 192.092 237.819 190.74C238.322 189.388 239.102 188.331 240.159 187.568C241.217 186.788 242.56 186.398 244.189 186.398C245.628 186.398 246.911 186.823 248.037 187.672C249.164 188.504 249.97 189.674 250.455 191.182L256.695 189.492C256.019 186.719 254.572 184.535 252.353 182.94C250.152 181.328 247.457 180.522 244.267 180.522C241.425 180.522 238.972 181.163 236.909 182.446C234.847 183.711 233.252 185.462 232.125 187.698C231.016 189.917 230.453 192.465 230.435 195.342C230.453 198.167 230.999 200.698 232.073 202.934C233.165 205.17 234.734 206.938 236.779 208.238ZM268.223 208.316C270.373 209.547 272.869 210.162 275.711 210.162C278.415 210.162 280.885 209.46 283.121 208.056C285.375 206.652 287.039 204.685 288.113 202.154L281.925 200.282C281.319 201.582 280.452 202.579 279.325 203.272C278.216 203.948 276.89 204.286 275.347 204.286C272.955 204.286 271.135 203.506 269.887 201.946C268.907 200.721 268.312 199.1 268.102 197.084H282.211H285.357H288.425C288.668 193.721 288.295 190.801 287.307 188.322C286.319 185.843 284.803 183.928 282.757 182.576C280.729 181.207 278.259 180.522 275.347 180.522C272.591 180.522 270.165 181.146 268.067 182.394C265.97 183.642 264.332 185.401 263.153 187.672C261.975 189.925 261.385 192.586 261.385 195.654C261.385 198.497 261.983 201.01 263.179 203.194C264.393 205.378 266.074 207.085 268.223 208.316ZM282.065 192.352C281.839 190.524 281.35 189.111 280.599 188.114C279.542 186.71 277.878 186.008 275.607 186.008C273.042 186.008 271.135 186.805 269.887 188.4C269.086 189.413 268.541 190.73 268.255 192.352H282.065ZM301.449 186.866V209.382H307.715V186.866H317.101V181.302H292.063V186.866H301.449ZM329.282 181.302H323.016L323.042 209.382H334.404C335.202 209.382 336.094 209.365 337.082 209.33C338.088 209.278 338.937 209.174 339.63 209.018C341.936 208.48 343.721 207.475 344.986 206.002C346.269 204.511 346.91 202.527 346.91 200.048C346.91 198.315 346.616 196.833 346.026 195.602C345.437 194.371 344.579 193.375 343.452 192.612C342.343 191.849 341 191.295 339.422 190.948C338.764 190.826 337.94 190.749 336.952 190.714C335.982 190.679 335.106 190.662 334.326 190.662H329.282V181.302ZM334.95 204.468H329.282V195.576H334.95C335.314 195.576 335.713 195.593 336.146 195.628C336.58 195.663 336.996 195.732 337.394 195.836C338.278 196.061 339.024 196.538 339.63 197.266C340.237 197.994 340.54 198.921 340.54 200.048C340.54 201.123 340.237 202.033 339.63 202.778C339.041 203.506 338.356 203.974 337.576 204.182C337.143 204.303 336.692 204.381 336.224 204.416C335.756 204.451 335.332 204.468 334.95 204.468ZM363.033 204.468V215.622H368.935V209.382H386.927V215.622H392.855V204.468H390.021V181.302H369.117C369.031 183.399 368.927 185.393 368.805 187.282C368.701 189.171 368.571 190.965 368.415 192.664C368.259 194.363 368.06 195.975 367.817 197.5C367.436 200.065 366.925 201.868 366.283 202.908C365.642 203.948 364.559 204.468 363.033 204.468ZM383.781 204.468H371.431C372.125 203.775 372.61 202.96 372.887 202.024C373.165 201.088 373.399 199.892 373.589 198.436C373.711 197.604 373.815 196.703 373.901 195.732C374.005 194.744 374.101 193.713 374.187 192.638C374.274 191.563 374.352 190.489 374.421 189.414C374.491 188.322 374.551 187.256 374.603 186.216H383.781V204.468ZM396.51 204.13V209.382C398.642 209.85 400.367 209.91 401.684 209.564C403.002 209.235 404.024 208.48 404.752 207.302C405.498 206.123 406.07 204.52 406.468 202.492C406.642 201.591 406.806 200.507 406.962 199.242C407.136 197.959 407.292 196.607 407.43 195.186C407.569 193.765 407.699 192.361 407.82 190.974C407.942 189.57 408.046 188.305 408.132 187.178H417.05V209.382H423.29V181.302H402.62C402.482 183.694 402.326 186.034 402.152 188.322C401.996 190.61 401.806 192.759 401.58 194.77C401.372 196.781 401.13 198.557 400.852 200.1C400.644 201.192 400.402 202.067 400.124 202.726C399.847 203.385 399.431 203.835 398.876 204.078C398.322 204.303 397.533 204.321 396.51 204.13ZM448.431 200.022V209.382H454.697V181.302H443.309C442.667 181.302 441.861 181.319 440.891 181.354C439.937 181.371 439.01 181.475 438.109 181.666C435.942 182.099 434.183 183.087 432.831 184.63C431.479 186.173 430.803 188.209 430.803 190.74C430.803 193.323 431.513 195.368 432.935 196.876C433.923 197.912 435.091 198.685 436.439 199.193L430.075 209.382H436.653L442.461 200.012C442.811 200.018 443.128 200.022 443.413 200.022H448.431ZM448.431 195.108H442.763C442.451 195.108 442.069 195.091 441.619 195.056C441.185 195.021 440.761 194.952 440.345 194.848C439.495 194.605 438.75 194.129 438.109 193.418C437.485 192.69 437.173 191.78 437.173 190.688C437.173 189.96 437.32 189.31 437.615 188.738C437.909 188.166 438.282 187.689 438.733 187.308C439.183 186.927 439.66 186.658 440.163 186.502C440.631 186.381 441.099 186.303 441.567 186.268C442.035 186.233 442.433 186.216 442.763 186.216H448.431V195.108ZM479.303 208.42C481.175 209.581 483.446 210.179 486.115 210.214C488.819 210.231 491.203 209.668 493.265 208.524C495.328 207.38 496.94 205.768 498.101 203.688C499.263 201.608 499.843 199.181 499.843 196.408C499.843 193.929 499.358 191.685 498.387 189.674C497.434 187.646 496.056 186.042 494.253 184.864C492.468 183.685 490.327 183.096 487.831 183.096C486.185 183.096 484.555 183.425 482.943 184.084C481.349 184.725 480.014 185.843 478.939 187.438C479.061 185.861 479.451 184.361 480.109 182.94C480.768 181.519 481.721 180.427 482.969 179.664C483.871 179.092 484.937 178.659 486.167 178.364C487.398 178.069 488.689 177.844 490.041 177.688C491.411 177.532 492.728 177.393 493.993 177.272C495.276 177.133 496.403 176.943 497.373 176.7L496.801 171.162C495.276 171.457 493.733 171.699 492.173 171.89C490.613 172.08 489.097 172.297 487.623 172.54C486.15 172.765 484.737 173.095 483.385 173.528C482.051 173.961 480.811 174.576 479.667 175.374C478.662 176.067 477.726 176.934 476.859 177.974C475.993 178.997 475.291 180.115 474.753 181.328C474.233 182.541 473.826 184.014 473.531 185.748C473.237 187.481 473.046 189.258 472.959 191.078C472.873 192.898 472.881 194.545 472.985 196.018C473.211 198.895 473.852 201.391 474.909 203.506C475.967 205.621 477.431 207.258 479.303 208.42ZM491.523 202.258C490.379 203.645 488.681 204.338 486.427 204.338C484.243 204.338 482.562 203.671 481.383 202.336C480.205 200.984 479.615 199.095 479.615 196.668C479.615 194.293 480.196 192.421 481.357 191.052C482.519 189.683 484.209 188.998 486.427 188.998C488.611 188.998 490.293 189.683 491.471 191.052C492.667 192.421 493.265 194.293 493.265 196.668C493.265 198.991 492.685 200.854 491.523 202.258ZM524.94 209.382H530.946V181.302H525.98L512.564 199.164V181.302H506.558V209.382H511.576L524.94 191.052V209.382ZM541.965 208.472C544.166 209.599 546.602 210.162 549.271 210.162C551.316 210.162 553.197 209.815 554.913 209.122C556.646 208.429 558.033 207.406 559.073 206.054C560.113 204.702 560.633 203.047 560.633 201.088C560.633 200.013 560.451 198.999 560.087 198.046C559.74 197.093 559.229 196.261 558.553 195.55C558.241 195.214 557.897 194.912 557.519 194.646C558.099 193.99 558.556 193.312 558.891 192.612C559.463 191.451 559.749 190.211 559.749 188.894C559.749 187.056 559.263 185.514 558.293 184.266C557.34 183.018 556.074 182.082 554.497 181.458C552.937 180.834 551.255 180.522 549.453 180.522C547.269 180.522 545.215 180.929 543.291 181.744C541.367 182.541 539.625 183.633 538.065 185.02L541.601 189.284C542.641 188.469 543.82 187.776 545.137 187.204C546.454 186.632 547.789 186.346 549.141 186.346C550.25 186.346 551.221 186.589 552.053 187.074C552.885 187.542 553.301 188.339 553.301 189.466C553.301 190.714 552.763 191.52 551.689 191.884C550.632 192.248 549.314 192.43 547.737 192.43H545.683V197.396H547.763C548.89 197.396 549.947 197.439 550.935 197.526C551.923 197.613 552.72 197.873 553.327 198.306C553.934 198.722 554.237 199.441 554.237 200.464C554.237 201.625 553.786 202.553 552.885 203.246C551.984 203.939 550.744 204.286 549.167 204.286C547.659 204.286 546.289 203.965 545.059 203.324C543.828 202.665 542.71 201.738 541.705 200.542L536.765 203.844C538.03 205.803 539.763 207.345 541.965 208.472ZM573.607 181.302H567.341V209.382H573.607V198.254H586.217V209.382H592.483V181.302H586.217V192.378H573.607V181.302ZM606.059 208.316C608.208 209.547 610.704 210.162 613.547 210.162C616.251 210.162 618.721 209.46 620.957 208.056C623.21 206.652 624.874 204.685 625.949 202.154L619.761 200.282C619.154 201.582 618.288 202.579 617.161 203.272C616.052 203.948 614.726 204.286 613.183 204.286C610.791 204.286 608.971 203.506 607.723 201.946C606.743 200.721 606.148 199.1 605.937 197.084H620.047H623.193H626.261C626.504 193.721 626.131 190.801 625.143 188.322C624.155 185.843 622.638 183.928 620.593 182.576C618.565 181.207 616.095 180.522 613.183 180.522C610.427 180.522 608 181.146 605.903 182.394C603.806 183.642 602.168 185.401 600.989 187.672C599.81 189.925 599.221 192.586 599.221 195.654C599.221 198.497 599.819 201.01 601.015 203.194C602.228 205.378 603.91 207.085 606.059 208.316ZM619.901 192.352C619.675 190.524 619.186 189.111 618.435 188.114C617.378 186.71 615.714 186.008 613.443 186.008C610.878 186.008 608.971 186.805 607.723 188.4C606.921 189.413 606.377 190.73 606.09 192.352H619.901ZM637.886 208.238C639.932 209.521 642.401 210.162 645.296 210.162C648.433 210.162 651.086 209.399 653.252 207.874C655.419 206.331 656.935 204.13 657.802 201.27L651.406 199.84C650.921 201.279 650.193 202.379 649.222 203.142C648.269 203.905 646.96 204.286 645.296 204.286C642.939 204.286 641.162 203.463 639.966 201.816C638.77 200.169 638.172 198.011 638.172 195.342C638.172 193.626 638.423 192.092 638.926 190.74C639.429 189.388 640.209 188.331 641.266 187.568C642.323 186.788 643.667 186.398 645.296 186.398C646.735 186.398 648.018 186.823 649.144 187.672C650.271 188.504 651.077 189.674 651.562 191.182L657.802 189.492C657.126 186.719 655.679 184.535 653.46 182.94C651.259 181.328 648.563 180.522 645.374 180.522C642.531 180.522 640.079 181.163 638.016 182.446C635.953 183.711 634.359 185.462 633.232 187.698C632.123 189.917 631.56 192.465 631.542 195.342C631.56 198.167 632.105 200.698 633.18 202.934C634.272 205.17 635.841 206.938 637.886 208.238ZM666.299 209.018C667.703 209.781 669.419 210.162 671.447 210.162C673.978 210.162 676.084 209.694 677.765 208.758C679.072 208.024 680.251 206.973 681.301 205.603V209.382H686.787V192.144C686.787 190.931 686.735 189.812 686.631 188.79C686.527 187.75 686.224 186.736 685.721 185.748C684.803 183.893 683.39 182.559 681.483 181.744C679.594 180.929 677.401 180.522 674.905 180.522C671.595 180.522 668.96 181.241 667.001 182.68C665.06 184.118 663.743 186.025 663.049 188.4L668.769 190.194C669.237 188.755 670.061 187.741 671.239 187.152C672.418 186.562 673.64 186.268 674.905 186.268C677.003 186.268 678.493 186.727 679.377 187.646C680.113 188.411 680.537 189.53 680.648 191.003C679.511 191.173 678.403 191.337 677.323 191.494C675.555 191.737 673.909 192.005 672.383 192.3C670.875 192.595 669.558 192.924 668.431 193.288C666.941 193.791 665.727 194.441 664.791 195.238C663.855 196.018 663.162 196.954 662.711 198.046C662.261 199.121 662.035 200.334 662.035 201.686C662.035 203.229 662.391 204.641 663.101 205.924C663.829 207.207 664.895 208.238 666.299 209.018ZM676.335 204.416C675.33 204.919 674.117 205.17 672.695 205.17C671.707 205.17 670.875 205.014 670.199 204.702C669.541 204.39 669.038 203.974 668.691 203.454C668.345 202.917 668.171 202.301 668.171 201.608C668.171 201.001 668.301 200.473 668.561 200.022C668.839 199.571 669.229 199.173 669.731 198.826C670.234 198.479 670.849 198.176 671.577 197.916C672.323 197.673 673.181 197.457 674.151 197.266C675.122 197.058 676.283 196.841 677.635 196.616C678.5 196.472 679.475 196.313 680.56 196.141C680.548 196.618 680.526 197.167 680.495 197.786C680.461 198.809 680.279 199.719 679.949 200.516C679.741 201.157 679.334 201.842 678.727 202.57C678.138 203.298 677.341 203.913 676.335 204.416Z" fill="white"/>
</g>
<defs>
<clipPath id="clip0_5_2">
<path d="M22 142H710.101C722.196 142 732 151.804 732 163.899V223.101C732 235.196 722.196 245 710.101 245H43.9C31.805 245 22 235.195 22 223.1V142Z" fill="white"/>
</clipPath>
</defs>
</svg>
